<svg width="823" height="814" viewBox="0 0 823 814" fill="none" xmlns="http://www.w3.org/2000/svg">
<path d="M358.223 33.4196C360.903 23.7213 363.65 14.4608 366.02 5.10476C366.977 1.32823 368.856 0.0664961 372.678 0.0822741C400.006 0.195151 427.335 0.255034 454.661 0.000830323C459.685 -0.0459147 461.804 1.87855 463.009 6.41035C467.715 24.1059 472.697 41.7279 477.447 59.412C480 68.9182 479.922 68.7064 489.809 70.335C501.977 72.3395 514.019 75.0719 525.521 79.6258C529.348 81.1412 531.788 80.493 534.664 77.5551C547.482 64.4584 560.633 51.6874 573.479 38.6168C576.322 35.7241 578.508 35.4106 582.053 37.4772C606.372 51.6535 630.796 65.6504 655.248 79.5965C658.538 81.473 659.425 83.4397 658.366 87.2742C653.093 106.365 648.217 125.566 643.051 144.687C642.086 148.26 642.91 150.641 645.816 152.884C656.157 160.861 665.268 170.108 673.096 180.559C675.336 183.55 677.568 184.109 681.164 183.043C696.644 178.457 712.239 174.261 727.754 169.794C736.847 167.177 736.9 167.027 741.436 175.128C752.42 194.747 763.34 214.401 774.25 234.061C777.645 240.177 780.796 246.431 784.315 252.473C786.047 255.446 785.751 257.581 783.294 259.934C769.943 272.712 756.666 285.567 743.398 298.431C741.245 300.519 738.84 301.563 735.797 301.541C722.634 301.445 709.469 301.385 696.306 301.483C692.714 301.51 691.057 299.9 689.734 296.693C661.097 227.225 612.855 175.831 545.785 142.362C512.386 125.695 476.802 116.177 439.447 113.395C375.18 108.608 315.279 122.271 260.229 155.882C206.416 188.738 167.31 234.538 142.098 292.266C141.432 293.79 140.813 295.351 140.357 296.947C139.377 300.378 137.169 301.579 133.655 301.541C119.826 301.393 105.994 301.385 92.164 301.448C88.9381 301.463 86.5712 300.374 84.236 298.092C71.4887 285.633 58.6588 273.254 45.6566 261.063C42.4675 258.072 41.8112 255.675 43.914 251.614C57.857 224.69 72.6534 198.236 87.3211 171.708C89.4854 167.793 91.7736 166.864 96.1375 168.095C113.921 173.113 131.839 177.656 149.649 182.583C153.164 183.556 155.209 182.567 157.247 179.806C165.319 168.868 174.938 159.447 186.018 151.574C188.267 149.976 188.911 148.41 188.144 145.708C182.6 126.171 177.404 106.532 171.583 87.08C170.205 82.4755 171.46 80.4305 175.12 78.3371C196.807 65.9333 218.364 53.3018 240.099 40.9842C253.94 33.1401 249.488 32.7821 261.211 44.1157C272.946 55.4615 284.533 66.9631 296.079 78.5022C298.488 80.9102 300.77 81.7028 304.085 80.4548C317.527 75.3952 331.312 71.601 345.644 70.0892C348.437 69.7947 349.001 67.7971 349.578 65.6438C352.419 55.0324 355.283 44.4267 358.223 33.4196Z" fill="black"/>
<path d="M89.7838 518.145C104.899 518.115 119.565 518.194 134.228 518C137.988 517.951 140.03 519.366 141.406 522.764C155.475 557.506 175.949 588.205 202.08 614.848C238.942 652.433 282.738 678.876 333.496 693.583C361.895 701.812 390.898 705.88 420.332 704.977C475.854 703.273 527.769 688.784 574.862 658.583C610.717 635.59 640.221 606.119 664.122 570.979C674.19 556.178 682.122 540.208 688.468 523.496C690.044 519.346 692.286 518.017 696.583 518.036C708.407 518.087 720.234 517.722 732.059 517.446C737.307 517.323 741.495 518.902 745.381 522.807C757.719 535.202 770.356 547.306 783.088 559.299C786.174 562.206 786.148 564.638 784.241 568.006C771.441 590.616 758.736 613.28 746.013 635.935C744.3 638.985 742.468 641.989 741.038 645.171C739.048 649.601 736.247 650.787 731.475 649.339C715.224 644.406 698.82 639.977 682.584 634.998C677.962 633.58 675.13 634.212 671.993 638.147C663.988 648.188 655.055 657.428 644.709 665.132C642.061 667.105 641.849 669.109 642.663 672.003C647.938 690.755 652.977 709.573 658.373 728.289C659.542 732.345 658.929 734.767 655.205 736.939C631.606 750.7 608.023 764.492 584.614 778.572C579.693 781.532 576.632 780.985 572.74 776.858C560.168 763.525 547.12 750.641 534.451 737.398C531.484 734.296 528.89 733.71 524.821 735.215C512.129 739.91 498.865 742.529 485.522 744.508C481.151 745.157 479.235 747.058 478.212 751.13C473.747 768.89 468.995 786.577 464.505 804.331C462.163 813.59 462.31 813.599 452.568 813.59C426.238 813.565 399.907 813.479 373.577 813.641C369.267 813.667 367.339 812.121 366.275 808.043C361.275 788.877 356.001 769.783 350.945 750.631C350.082 747.36 348.593 745.542 345.011 745.059C330.928 743.163 317.322 739.24 303.884 734.731C301.163 733.818 299.368 734.397 297.309 736.514C283.484 750.726 269.452 764.735 255.588 778.909C253.166 781.386 251.122 781.52 248.177 779.78C223.943 765.458 199.658 751.225 175.322 737.078C171.954 735.12 170.703 733.138 171.899 729.045C177.129 711.147 181.86 693.104 187.109 675.212C188.632 670.02 187.826 666.603 183.325 663.28C173.224 655.821 164.435 646.889 157.087 636.701C154.349 632.903 151.345 634.224 148.243 635.05C130.705 639.72 113.158 644.363 95.6992 649.315C91.7116 650.447 89.7269 649.572 87.7559 645.993C73.1313 619.439 58.3545 592.969 43.5128 566.535C41.9105 563.681 42.2387 561.78 44.5216 559.556C57.7655 546.648 70.9121 533.641 84.0889 520.665C85.5523 519.224 87.1519 518.085 89.7838 518.145Z" fill="black"/>
<path d="M513.294 184.496C458.1 160.768 401.939 155.967 344.708 174.02C288.06 191.889 243.197 226.029 209.929 275.235C205.187 282.249 200.619 289.462 197.054 297.199C195.806 299.91 194.074 301.401 190.96 301.384C181.297 301.331 171.632 301.489 161.97 301.394C157.517 301.35 156.899 300.036 158.865 295.751C177.718 254.661 204.134 219.418 239.437 190.941C280.838 157.544 328.025 137.722 380.686 131.382C451.414 122.867 516.489 138.989 575.096 179.297C615.683 207.212 646.609 243.831 667.615 288.586C668.889 291.301 670.198 293.998 671.532 296.684C672.786 299.206 672.323 301.213 669.314 301.25C658.658 301.378 647.997 301.283 637.339 301.169C635.036 301.144 633.996 299.266 633.041 297.446C621.671 275.757 607.376 256.155 590.38 238.573C568.273 215.702 543.059 197.16 513.294 184.496Z" fill="black"/>
<path d="M203.386 530.367C232.753 579.234 273.272 614.74 325.695 636.394C354.995 648.497 385.632 654.644 417.294 653.979C472.898 652.811 522.673 635.022 566.226 600.086C592.831 578.745 614.243 553.104 630.948 523.482C633.201 519.487 635.766 517.645 640.424 518.015C649.392 518.729 658.364 517.206 667.377 517.835C671.856 518.148 671.882 519.738 670.385 523.161C659.273 548.571 644.142 571.436 626.011 592.279C600.754 621.312 570.591 644.108 535.875 660.673C502.914 676.4 468.183 685.456 431.627 687.737C378.646 691.042 329.014 679.568 282.452 654.544C239.092 631.24 204.84 598.09 178.335 556.744C171.668 546.344 166.02 535.393 160.446 524.405C157.495 518.587 158.112 518.007 164.43 517.999C172.921 517.988 181.423 517.886 189.898 517.425C194.576 517.171 197.466 518.854 199.294 523.084C200.344 525.516 201.883 527.737 203.386 530.367Z" fill="black"/>
<path d="M688.65 356.955C688.662 349.309 688.762 342.149 688.644 334.993C688.586 331.469 690.04 330.121 694.037 330.175C704.905 330.323 715.781 330.242 726.647 330.003C729.687 329.936 731.195 331.103 732.449 333.33C746.21 357.779 760.009 382.211 773.814 406.64C774.934 408.621 775.532 410.93 777.832 412.333C779.454 410.968 778.735 409.247 778.736 407.744C778.762 384.153 778.72 360.562 778.7 336.971C778.694 330.45 778.832 330.335 785.772 330.333C795.22 330.329 804.669 330.341 814.117 330.3C822.746 330.262 822.865 330.32 822.873 338.05C822.917 382.954 822.951 427.858 822.987 472.762C822.99 476.341 822.942 479.921 822.999 483.5C823.047 486.556 821.485 487.949 818.134 487.932C806.725 487.876 795.315 487.835 783.906 487.895C780.432 487.914 779.007 486.016 777.628 483.522C763.256 457.537 748.802 431.589 734.362 405.635C733.966 404.924 733.465 404.262 732.743 403.167C731.362 404.901 731.896 406.531 731.898 407.994C731.935 432.073 732.014 456.151 732.091 480.23C732.116 487.932 732.023 488.028 723.365 487.997C713.916 487.964 704.468 487.935 695.02 487.881C688.703 487.844 687.973 487.223 688.001 481.401C688.198 440.082 688.429 398.763 688.65 356.955Z" fill="black"/>
<path d="M32.3465 330.073C46.9925 330.061 61.1807 329.979 75.3682 330.056C90.9983 330.141 103.588 343.414 103.908 360.091C104.023 366.12 103.941 372.154 103.903 378.186C103.833 389.385 99.1861 397.471 89.5811 402.207C88.3926 402.792 86.9275 403.101 86.238 405.127C88.2624 406.346 90.3568 407.546 92.3965 408.844C100.127 413.765 103.99 421.037 103.97 430.672C103.954 438.823 104.038 446.975 103.978 455.126C103.841 473.954 91.8946 487.544 74.339 487.829C51.3084 488.202 28.2679 487.842 5.23176 487.885C1.6117 487.892 0.0725082 486.532 0.0777005 482.431C0.139659 433.523 0.112688 384.614 5.13754e-05 335.706C-0.00967738 331.483 1.36087 329.907 5.34442 330.004C14.1883 330.22 23.04 330.072 32.3465 330.073ZM37.0184 428.735C37.0156 436.056 37.119 443.38 36.9645 450.697C36.8882 454.306 38.2301 455.625 41.5515 455.512C47.1793 455.319 52.8164 455.463 58.4486 455.389C65.0072 455.304 69.1554 451.446 69.6243 444.52C69.9418 439.83 69.9016 435.072 69.568 430.382C69.1597 424.642 65.0039 420.629 59.5736 420.43C54.4025 420.241 49.2231 420.309 44.0474 420.262C36.9552 420.197 36.9552 420.196 37.0184 428.735ZM36.9658 364.352C36.9984 372.001 37.1076 379.651 37.0281 387.298C36.9935 390.616 38.2154 392.011 41.3497 391.939C47.2865 391.803 53.2303 391.992 59.1662 391.834C65.0654 391.677 68.9616 387.996 69.534 381.698C69.9146 377.51 69.8435 373.226 69.5103 369.027C69.0974 363.824 65.7259 360.226 60.8542 359.979C54.167 359.641 47.4575 359.811 40.7576 359.748C38.395 359.726 36.9722 360.75 36.9658 364.352Z" fill="black"/>
<path d="M131.603 474.232C125.048 464.993 125.481 454.489 125.351 444.31C125.003 417.109 124.951 389.902 125.035 362.699C125.095 343.139 138.271 330.057 157.453 330.044C172.451 330.034 187.452 330.261 202.445 330.004C220.28 329.7 235.096 345.416 235 361.047C234.952 368.848 234.798 376.659 234.786 384.466C234.751 407.761 234.81 431.056 234.712 454.35C234.628 474.025 221.685 487.49 202.309 487.812C187.316 488.061 172.31 488.084 157.32 487.75C146.917 487.519 138.151 483.27 131.603 474.232ZM195.374 450.295C196.812 448.276 197.813 446.066 197.814 443.533C197.829 420.746 197.955 397.958 197.733 375.173C197.666 368.275 194.012 364.444 187.271 363.292C184.002 362.733 180.606 362.804 177.269 362.83C168.535 362.898 163.727 367.362 163.662 376.2C163.5 398.01 163.609 419.822 163.704 441.634C163.722 445.653 164.938 449.37 168.149 452.024C174.229 457.048 189.142 456.367 195.374 450.295Z" fill="black"/>
<path d="M568.253 487.871C564.151 488.031 562.59 486.466 561.618 483.456C545.928 434.893 530.365 386.296 512.634 338.258C512.348 337.483 512.082 336.702 511.837 335.916C510.201 330.671 510.553 330.235 516.643 330.221C528.022 330.196 539.41 330.427 550.776 330.086C556.056 329.928 558.493 331.579 559.808 335.955C566.19 357.201 572.865 378.38 579.345 399.604C582.128 408.719 584.671 417.89 587.373 427.024C587.785 428.415 588.149 429.893 589.707 430.866C591.833 430.461 591.734 428.796 592.117 427.485C600.895 397.372 609.75 367.276 618.306 337.115C619.735 332.074 621.893 329.713 628.429 330.028C639.026 330.538 649.685 330.112 660.316 330.003C665.919 329.946 666.848 330.638 665.38 335.298C661.525 347.533 657.343 359.69 653.456 371.917C644.334 400.61 635.332 429.332 626.226 458.029C623.539 466.494 620.537 474.884 617.94 483.37C616.881 486.827 614.715 488.042 610.733 487.999C596.744 487.849 582.753 487.901 568.253 487.871Z" fill="black"/>
<path d="M284.843 449.649C284.831 423.077 284.838 396.994 284.799 370.911C284.786 362.821 284.661 362.739 277.111 362.715C270.355 362.692 263.597 362.606 256.842 362.726C253.481 362.786 252.066 361.143 252.065 357.748C252.06 350.087 252.111 342.424 252.001 334.764C251.948 331.072 253.687 329.957 256.864 330.01C262.697 330.109 268.533 330.009 274.368 330.008C299.859 330.002 325.349 329.995 350.839 330.004C356.408 330.006 356.919 330.489 356.976 336.366C357.041 343.211 356.953 350.058 356.958 356.905C356.962 360.899 355.353 362.81 351.361 362.714C343.534 362.525 335.695 362.826 327.871 362.574C323.693 362.44 322.279 363.932 322.292 368.477C322.403 405.971 322.309 443.465 322.268 480.959C322.261 487.907 322.212 487.943 315.509 487.938C307.217 487.932 298.92 487.728 290.636 487.991C286.327 488.127 284.612 486.775 284.747 481.925C285.042 471.338 284.841 460.735 284.843 449.649Z" fill="black"/>
<path d="M434.165 432.89C447.581 413.748 460.827 394.859 474.092 375.943C471.415 374.674 469.198 375.08 467.107 375.077C440.834 375.041 414.561 375.078 388.289 374.997C385.976 374.99 382.425 376.093 382.025 372.873C381.658 369.921 385.427 365.365 388.272 365.089C389.756 364.945 391.279 365.019 392.785 365.019C422.237 365.013 451.69 365.015 481.142 365.005C491.515 365.002 494.323 368.369 489.534 375.608C484.316 383.495 478.743 391.25 473.309 399.056C459.26 419.241 445.201 439.422 431.158 459.609C430.856 460.043 430.697 460.532 430.461 461.018C432.081 462.503 434.242 461.942 436.109 461.946C453.512 461.984 470.916 461.906 488.319 461.991C490.814 462.004 494.574 460.953 494.965 464.331C495.401 468.097 491.671 471.855 487.6 471.896C479.736 471.977 471.87 471.953 464.005 471.959C447.605 471.973 431.206 471.989 414.806 471.975C412.678 471.973 410.471 472.242 407.415 471.058C416.323 458.351 425.16 445.746 434.165 432.89Z" fill="black"/>
<path d="M376.527 386.992C377.681 382.364 380.982 380.941 386.866 381.002C409.201 381.233 431.542 381.065 453.881 381.078C461.735 381.082 462.063 381.52 458.47 386.658C438.231 415.593 417.985 444.525 397.77 473.469C396.863 474.768 395.494 475.969 395.641 477.634C397.284 478.94 399.415 478.423 401.303 478.425C428.643 478.456 455.983 478.414 483.323 478.466C485.489 478.47 488.798 477.48 488.989 480.569C489.203 484.01 486.193 487.763 483.171 487.934C481.015 488.056 478.839 487.971 476.672 487.971C446.664 487.97 416.657 487.969 386.649 487.966C377.79 487.965 374.782 484.375 378.975 478.254C387.168 466.291 395.662 454.447 404.006 442.543C415.081 426.745 426.14 410.941 437.171 395.126C437.843 394.161 438.786 393.19 438.306 391.88C436.486 390.71 434.22 391.136 432.141 391.127C415.137 391.056 398.133 391.045 381.129 391.027C377.798 391.023 374.742 390.868 376.527 386.992Z" fill="black"/>
</svg>
